<svg width="32" height="16" viewBox="0 0 32 16" fill="none" xmlns="http://www.w3.org/2000/svg">
<path d="M16.2 15.7964V15.7779H16C14.5015 15.7779 13.133 15.1811 12.1047 14.0915C12.1046 14.0915 12.1046 14.0915 12.1046 14.0915L0.44846 1.7369L0.448461 1.7369L0.447795 1.7362C0.103216 1.37448 0.120259 0.792826 0.48494 0.447338C0.847919 0.103462 1.43191 0.120443 1.77863 0.484055C1.77874 0.484163 1.77884 0.484272 1.77894 0.48438L13.434 12.8378C13.4341 12.8378 13.4341 12.8379 13.4342 12.838C14.7788 14.2727 17.2215 14.2726 18.566 12.8378L30.2211 0.506521C30.2211 0.506485 30.2211 0.50645 30.2212 0.506414C30.5679 0.142591 31.152 0.125534 31.5151 0.469479C31.8797 0.814967 31.8968 1.39663 31.5522 1.75834L31.5515 1.75904L19.8954 14.1136C18.913 15.1545 17.6201 15.7457 16.2 15.7964Z" fill="#4DB5E7" stroke="white" stroke-width="0.4"/>
</svg>
