<svg width="39" height="51" viewBox="0 0 39 51" fill="none" xmlns="http://www.w3.org/2000/svg">
<path fill-rule="evenodd" clip-rule="evenodd" d="M19.5 50L21.4456 47.828C23.6533 45.323 25.6389 42.9463 27.4057 40.6857L28.8641 38.7795C34.9537 30.6505 38 24.1986 38 19.43C38 9.25118 29.7182 1 19.5 1C9.28183 1 1 9.25118 1 19.43C1 24.1986 4.04633 30.6505 10.1359 38.7795L11.5943 40.6857C14.1148 43.8854 16.7517 46.9901 19.5 50Z" stroke="#4DB5E7" stroke-width="2" stroke-linecap="round" stroke-linejoin="round"/>
<path d="M19.5 26C23.0899 26 26 23.0899 26 19.5C26 15.9101 23.0899 13 19.5 13C15.9101 13 13 15.9101 13 19.5C13 23.0899 15.9101 26 19.5 26Z" stroke="#4DB5E7" stroke-width="2" stroke-linecap="round" stroke-linejoin="round"/>
</svg>
