<svg width="38" height="38" viewBox="0 0 38 38" fill="none" xmlns="http://www.w3.org/2000/svg">
<path d="M36.5716 26.5464L27.2258 22.3644C26.8635 22.2076 26.4678 22.1436 26.0746 22.1781C25.6813 22.2127 25.3029 22.3447 24.9735 22.5623C24.9472 22.579 24.922 22.5975 24.8983 22.6177L19.9899 26.8017C19.8807 26.8683 19.7567 26.907 19.6289 26.9142C19.5012 26.9215 19.3736 26.8971 19.2576 26.8433C16.0434 25.2916 12.7163 21.9903 11.1647 18.8137C11.1098 18.6985 11.0843 18.5715 11.0905 18.4441C11.0967 18.3166 11.1344 18.1927 11.2003 18.0834L15.3962 13.0939C15.416 13.0701 15.4338 13.0444 15.4516 13.0187C15.6685 12.6897 15.8001 12.312 15.8347 11.9195C15.8692 11.527 15.8056 11.1321 15.6495 10.7703L11.4596 1.4404C11.2573 0.967861 10.9072 0.573698 10.4618 0.317102C10.0164 0.0605068 9.49978 -0.0446713 8.98952 0.0173626C6.49884 0.34575 4.21287 1.56957 2.55858 3.46023C0.904292 5.3509 -0.00518539 7.77911 2.22406e-05 10.2913C2.22406e-05 25.5707 12.4294 38 27.7087 38C30.221 38.0052 32.6492 37.0957 34.5398 35.4414C36.4305 33.7871 37.6543 31.5012 37.9827 29.0105C38.0443 28.5026 37.9402 27.9883 37.6859 27.5443C37.4317 27.1003 37.0408 26.7503 36.5716 26.5464ZM36.4172 28.8126C36.1377 30.9219 35.0995 32.8572 33.4968 34.2567C31.8941 35.6562 29.8365 36.424 27.7087 36.4166C13.3042 36.4166 1.58338 24.6959 1.58338 10.2913C1.57601 8.1636 2.34384 6.10602 3.74332 4.50328C5.14281 2.90055 7.07812 1.86239 9.18744 1.5829C9.21908 1.58094 9.2508 1.58094 9.28244 1.5829C9.43863 1.58423 9.59093 1.63173 9.72018 1.71943C9.84943 1.80712 9.94985 1.93108 10.0088 2.07572L14.1869 11.4056C14.2356 11.5196 14.2569 11.6435 14.249 11.7673C14.2411 11.8911 14.2042 12.0112 14.1414 12.1181L9.94745 17.1057C9.92766 17.1314 9.90787 17.1552 9.89005 17.1829C9.66662 17.5245 9.53503 17.9181 9.50799 18.3254C9.48095 18.7328 9.55937 19.1402 9.73568 19.5084C11.4556 23.0294 15.0023 26.5504 18.5629 28.2703C18.9336 28.4455 19.3434 28.5217 19.7523 28.4915C20.1612 28.4613 20.5553 28.3258 20.8964 28.0981L20.9696 28.0427L25.8839 23.8626C25.989 23.7984 26.1079 23.7601 26.2308 23.7508C26.3536 23.7415 26.4769 23.7615 26.5905 23.8092L35.9343 27.9972C36.0919 28.0628 36.2242 28.1777 36.3112 28.3246C36.3983 28.4716 36.4354 28.6428 36.4172 28.8126Z" fill="#4DB5E7"/>
</svg>
